<svg width="40" height="27" viewBox="0 0 40 27" fill="none" xmlns="http://www.w3.org/2000/svg">
<path d="M38.7954 1.2016H16.0742C15.7451 1.2016 15.4787 1.468 15.4787 1.79713V7.36418H8.65469C8.49151 7.36418 8.33588 7.43088 8.22352 7.54919L0.806747 15.3427C0.701139 15.4535 0.64238 15.6004 0.64238 15.7533V22.6067C0.64238 22.9358 0.908782 23.2022 1.23791 23.2022H5.37052C5.573 24.8348 6.96695 26.1036 8.65469 26.1036C10.3436 26.1036 11.7392 24.8351 11.9416 23.2022H16.0742H26.8943C27.0964 24.8348 28.4875 26.1036 30.1717 26.1036C31.861 26.1036 33.2566 24.8351 33.4594 23.2022H38.7954C39.1246 23.2022 39.391 22.9358 39.391 22.6067V1.79674C39.391 1.4684 39.1242 1.2016 38.7954 1.2016ZM8.65429 24.9126C7.48466 24.9126 6.5334 23.9617 6.5334 22.7933C6.5334 21.6236 7.48466 20.6724 8.65429 20.6724C9.82551 20.6724 10.7784 21.6236 10.7784 22.7933C10.7784 23.9621 9.82551 24.9126 8.65429 24.9126ZM8.65429 19.4813C7.09757 19.4813 5.79216 20.562 5.4392 22.0115H1.83265V15.9915L8.90918 8.55525H15.4779V22.0115H11.8718C11.5192 20.562 10.2122 19.4813 8.65429 19.4813ZM30.1713 24.9126C29.0053 24.9126 28.0572 23.9617 28.0572 22.7933C28.0572 21.6236 29.0057 20.6724 30.1713 20.6724C31.3429 20.6724 32.2962 21.6236 32.2962 22.7933C32.2962 23.9621 31.3429 24.9126 30.1713 24.9126ZM38.1999 22.0115H33.39C33.0366 20.562 31.7296 19.4813 30.1713 19.4813C28.6182 19.4813 27.3151 20.562 26.963 22.0115H16.6694V2.39267H38.1995L38.1999 22.0115Z" fill="url(#paint0_linear_55_127)" stroke="url(#paint1_linear_55_127)" stroke-width="0.5"/>
<defs>
<linearGradient id="paint0_linear_55_127" x1="20.0167" y1="1.2016" x2="20.0167" y2="26.1036" gradientUnits="userSpaceOnUse">
<stop stop-color="#0094DE"/>
<stop offset="1" stop-color="#263077"/>
</linearGradient>
<linearGradient id="paint1_linear_55_127" x1="20.0167" y1="1.2016" x2="20.0167" y2="26.1036" gradientUnits="userSpaceOnUse">
<stop stop-color="#0094DE"/>
<stop offset="1" stop-color="#263077"/>
</linearGradient>
</defs>
</svg>
