<svg width="20" height="14" viewBox="0 0 20 14" fill="none" xmlns="http://www.w3.org/2000/svg">
<path fill-rule="evenodd" clip-rule="evenodd" d="M20 7.00561C20 6.83873 19.9312 6.67936 19.8169 6.55936L13.63 0.309983C13.3856 0.063108 12.99 0.063733 12.7462 0.309983C12.5019 0.556233 12.5019 0.956233 12.7462 1.20248L17.8669 6.37436H0.625C0.28 6.37436 0 6.65686 0 7.00561C0 7.35436 0.28 7.63686 0.625 7.63686H17.8663L12.7462 12.8087C12.5019 13.055 12.5025 13.455 12.7462 13.7012C12.9906 13.9475 13.3863 13.9475 13.63 13.7012L19.8169 7.45186C19.9338 7.33373 19.9981 7.17123 20 7.00561Z" fill="white"/>
</svg>
