<svg width="47" height="45" viewBox="0 0 47 45" fill="none" xmlns="http://www.w3.org/2000/svg">
<path d="M39.6328 26.8923C40.7817 26.15 42.5049 24.96 44.8026 23.2304C45.4639 22.6686 46 22.8559 46 23.6504V41.8243C46 42.6242 45.4681 42.8117 44.8026 42.2488C42.4248 40.3098 40.6414 38.9879 39.4524 38.1696" stroke="#263077" stroke-width="2" stroke-linecap="round" stroke-linejoin="round"/>
<path d="M37.0938 22.25H3.34375C2.04933 22.25 1 23.2993 1 24.5937V41C1 42.2944 2.04933 43.3437 3.34375 43.3437H37.0938C38.3882 43.3437 39.4375 42.2944 39.4375 41V24.5937C39.4375 23.2993 38.3882 22.25 37.0938 22.25Z" stroke="#263077" stroke-width="2" stroke-linecap="round" stroke-linejoin="round"/>
<path d="M29.125 20.25C34.3027 20.25 38.5 16.0527 38.5 10.875C38.5 5.69733 34.3027 1.5 29.125 1.5C23.9473 1.5 19.75 5.69733 19.75 10.875C19.75 16.0527 23.9473 20.25 29.125 20.25Z" stroke="#0094DE" stroke-width="2" stroke-linecap="round" stroke-linejoin="round"/>
<path d="M10.375 20.25C15.5527 20.25 19.75 16.0527 19.75 10.875C19.75 5.69733 15.5527 1.5 10.375 1.5C5.19733 1.5 1 5.69733 1 10.875C1 16.0527 5.19733 20.25 10.375 20.25Z" stroke="#0094DE" stroke-width="2" stroke-linecap="round" stroke-linejoin="round"/>
</svg>
