<svg width="21" height="22" viewBox="0 0 21 22" fill="none" xmlns="http://www.w3.org/2000/svg">
<g clip-path="url(#clip0_5_39)">
<path d="M10.1428 12.6857C13.6286 12.6857 16.4857 9.82857 16.4857 6.34286C16.4857 2.85714 13.6571 0 10.1428 0C6.65713 0 3.79999 2.85714 3.79999 6.34286C3.79999 9.82857 6.65713 12.6857 10.1428 12.6857ZM10.1428 1.68571C12.7143 1.68571 14.8 3.77143 14.8 6.34286C14.8 8.91429 12.7143 11 10.1428 11C7.57142 11 5.4857 8.91429 5.4857 6.34286C5.4857 3.77143 7.57142 1.68571 10.1428 1.68571Z" fill="#0094DE"/>
<path d="M15.2286 12.3714C14.7429 12.8 14.1714 13.1429 13.6 13.4286C16.2857 14.6286 18.2571 17.2286 18.5714 20.2857H1.74286C2.02857 17.2286 4 14.6286 6.71429 13.4286C6.11429 13.1429 5.57143 12.8 5.08571 12.3714C2.05714 14.1143 0 17.4 0 21.1429V22H20.2857V21.1429C20.2857 17.4 18.2571 14.1143 15.2286 12.3714Z" fill="#263077"/>
</g>
<defs>
<clipPath id="clip0_5_39">
<rect width="20.2857" height="22" fill="white"/>
</clipPath>
</defs>
</svg>
