<svg width="42" height="42" viewBox="0 0 42 42" fill="none" xmlns="http://www.w3.org/2000/svg">
<path d="M17.7733 1V1.32385V7.45342H11.323V13.9043H17.7733V20.3545H24.2267V13.9043H30.6776V7.45342H24.2267V1H17.7733ZM18.4185 1.6458H23.5816V8.09603H30.0318V13.2585H23.5816V19.7094H18.4185V13.2585H11.9682V8.09603H18.4185V1.6458ZM1 19.0642V19.3881V41H4.87217V36.1614H37.1278V41H41V19.0642H37.1278V19.3881V27.1293H12.8269C13.3037 26.798 13.5819 26.3518 13.5798 25.8503C13.5769 25.1422 13.0746 24.4596 12.2038 23.8764L11.7798 23.5935L11.7634 23.7101C10.9641 23.2555 10.07 22.8659 9.11983 22.7147C8.0112 22.5381 6.89939 22.5863 6.00811 22.9024L6.00307 22.9048L5.98417 22.9122C5.49881 23.0843 5.12025 23.3423 4.87216 23.6543V19.0639L1 19.0642ZM1.64578 19.7094H4.22702V27.1293V27.4506V36.1614V40.3548H1.64578V19.7094ZM37.773 19.7094H40.3548V40.3548H37.773V19.7094ZM7.87426 23.2779C8.2434 23.2816 8.62739 23.3153 9.01273 23.3762C10.0403 23.5384 11.0746 23.8972 11.8441 24.4126C12.6136 24.9279 12.9331 25.466 12.9347 25.8528C12.9363 26.2396 12.6701 26.6039 11.9279 26.8672L11.9254 26.8696L11.9058 26.8769C10.4215 27.4034 7.82302 27.0073 6.28407 25.9766C5.51459 25.4613 5.19506 24.9206 5.19349 24.5338C5.1919 24.147 5.45872 23.7827 6.20091 23.5195L6.20342 23.517L6.22232 23.5097C6.68619 23.3452 7.25903 23.2709 7.87426 23.2779L7.87426 23.2779ZM4.87217 25.5088C5.10725 25.8641 5.46197 26.2028 5.92432 26.5125C6.27852 26.7497 6.67261 26.9552 7.08861 27.1293H4.87217V25.5088ZM4.87217 27.7744H37.1278V35.5162H4.87217V27.7744Z" fill="url(#paint0_linear_55_156)" stroke="url(#paint1_linear_55_156)"/>
<defs>
<linearGradient id="paint0_linear_55_156" x1="21" y1="1" x2="21" y2="41" gradientUnits="userSpaceOnUse">
<stop stop-color="#0094DE"/>
<stop offset="1" stop-color="#8A2BE2" stop-opacity="0"/>
</linearGradient>
<linearGradient id="paint1_linear_55_156" x1="21" y1="1" x2="21" y2="41" gradientUnits="userSpaceOnUse">
<stop stop-color="#0094DE"/>
<stop offset="1"/>
</linearGradient>
</defs>
</svg>
