<svg width="223" height="60" viewBox="0 0 223 60" fill="none" xmlns="http://www.w3.org/2000/svg">
<path d="M70.1386 13.017V27.4354H67.4278V13.017H62.9883V10.7187H74.5584V13.017H70.1386Z" fill="#0094DE"/>
<path d="M88.3089 27.4157L86.4231 23.1138H79.8032L77.8585 27.4157H75.0102L83.1033 10.0312L91.1965 27.4157H88.3089ZM80.805 20.8548H85.4605L83.7516 17.0439C83.6533 16.8082 83.5551 16.5135 83.4373 16.1992C83.3391 15.8849 83.2212 15.5314 83.123 15.1385C83.0247 15.5117 82.9265 15.8456 82.8283 16.1599C82.7301 16.4742 82.6122 16.7689 82.514 17.0243L80.805 20.8548Z" fill="#0094DE"/>
<path d="M95.0859 27.4157V10.699H97.7967V24.9799H103.867V27.4157H95.0859Z" fill="#0094DE"/>
<path d="M108.424 27.4157V10.699H111.135V17.6136L117.146 10.699H120.465L113.846 18.1439L121.251 27.4353H117.755L111.135 18.8904V27.4353H108.424V27.4157Z" fill="#0094DE"/>
<path d="M125.258 27.4157V10.699H127.969V16.8671H136.2V10.699H138.911V27.4157H136.2V19.3029H127.989V27.4157H125.258Z" fill="#0094DE"/>
<path d="M162.228 19.0869C162.228 20.2655 162.011 21.4048 161.56 22.4459C161.108 23.5066 160.46 24.4495 159.615 25.2746C158.751 26.0996 157.788 26.7478 156.708 27.18C155.627 27.6122 154.488 27.8479 153.309 27.8479C152.111 27.8479 150.952 27.6318 149.872 27.18C148.772 26.7282 147.809 26.0996 146.984 25.2746C146.139 24.4495 145.491 23.5066 145.039 22.4459C144.607 21.4048 144.372 20.2655 144.372 19.0672C144.372 17.8689 144.588 16.7493 145.039 15.6885C145.472 14.6278 146.12 13.6849 146.984 12.8402C147.829 12.0152 148.811 11.3866 149.891 10.9544C150.972 10.5223 152.111 10.3062 153.329 10.3062C154.527 10.3062 155.667 10.5223 156.747 10.9544C157.827 11.3866 158.79 12.0152 159.635 12.8402C160.479 13.6849 161.127 14.6474 161.579 15.7082C162.011 16.7886 162.228 17.9082 162.228 19.0869ZM159.399 19.0869C159.399 18.2422 159.242 17.4368 158.927 16.6707C158.613 15.9046 158.181 15.2367 157.592 14.6474C157.022 14.0581 156.374 13.6063 155.627 13.292C154.881 12.9777 154.095 12.8206 153.29 12.8206C152.465 12.8206 151.679 12.9777 150.952 13.292C150.206 13.6063 149.557 14.0581 148.968 14.6474C148.398 15.2367 147.947 15.9046 147.652 16.6707C147.338 17.4368 147.2 18.2422 147.2 19.0869C147.2 19.9315 147.357 20.7369 147.652 21.4834C147.947 22.2298 148.398 22.9173 148.968 23.5066C149.538 24.096 150.206 24.5478 150.952 24.8621C151.699 25.1764 152.465 25.3335 153.309 25.3335C154.115 25.3335 154.9 25.1764 155.627 24.8621C156.354 24.5478 157.022 24.096 157.611 23.5066C158.181 22.9173 158.633 22.2298 158.947 21.4834C159.242 20.7369 159.399 19.9315 159.399 19.0869Z" fill="#0094DE"/>
<path d="M181.321 19.1654C181.282 19.0279 181.242 18.6743 181.164 18.085C181.105 17.5939 181.046 17.201 181.007 16.8671C180.948 17.2403 180.85 17.6332 180.712 18.0064C180.594 18.3797 180.437 18.7725 180.241 19.1654L175.86 28.0639L171.48 18.969C171.303 18.5957 171.146 18.2422 171.008 17.8886C170.871 17.535 170.753 17.201 170.655 16.8475C170.655 17.201 170.615 17.5743 170.576 17.9475C170.517 18.3404 170.458 18.7332 170.36 19.1458L168.572 27.3764H166.078L170.026 9.95258L174.957 20.5012C175.035 20.678 175.153 20.953 175.31 21.3262C175.467 21.7191 175.664 22.1905 175.88 22.7602C176.037 22.2887 176.292 21.6798 176.626 20.9333C176.724 20.7369 176.783 20.5797 176.823 20.4815L181.635 9.95258L185.682 27.3764H183.168L181.321 19.1654Z" fill="#0094DE"/>
<path d="M190.2 27.4157V10.699H199.531V12.9973H192.911V17.1814H199.531V19.5583H192.911V24.9603H199.531V27.3961H190.2V27.4157Z" fill="#0094DE"/>
<path d="M222.121 19.0869C222.121 20.2655 221.905 21.4048 221.453 22.4459C221.001 23.5066 220.353 24.4495 219.508 25.2746C218.644 26.0996 217.681 26.7478 216.601 27.18C215.52 27.6122 214.381 27.8479 213.203 27.8479C212.004 27.8479 210.845 27.6318 209.765 27.18C208.665 26.7282 207.702 26.0996 206.877 25.2746C206.033 24.4495 205.384 23.5066 204.933 22.4459C204.5 21.4048 204.265 20.2655 204.265 19.0672C204.265 17.8689 204.481 16.7493 204.933 15.6885C205.365 14.6278 206.013 13.6849 206.877 12.8402C207.722 12.0152 208.704 11.3866 209.785 10.9544C210.865 10.5223 212.004 10.3062 213.222 10.3062C214.42 10.3062 215.56 10.5223 216.64 10.9544C217.721 11.3866 218.683 12.0152 219.528 12.8402C220.372 13.6849 221.021 14.6474 221.472 15.7082C221.905 16.7886 222.121 17.9082 222.121 19.0869ZM219.292 19.0869C219.292 18.2422 219.135 17.4368 218.821 16.6707C218.506 15.9046 218.074 15.2367 217.485 14.6474C216.915 14.0581 216.267 13.6063 215.52 13.292C214.774 12.9777 213.988 12.8206 213.183 12.8206C212.377 12.8206 211.572 12.9777 210.845 13.292C210.099 13.6063 209.451 14.0581 208.861 14.6474C208.292 15.2367 207.84 15.9046 207.545 16.6707C207.251 17.4368 207.093 18.2422 207.093 19.0869C207.093 19.9315 207.251 20.7369 207.545 21.4834C207.84 22.2298 208.292 22.9173 208.861 23.5066C209.431 24.096 210.099 24.5478 210.845 24.8621C211.592 25.1764 212.358 25.3335 213.203 25.3335C214.008 25.3335 214.794 25.1764 215.52 24.8621C216.247 24.5478 216.915 24.096 217.504 23.5066C218.074 22.9173 218.526 22.2298 218.84 21.4834C219.135 20.7369 219.292 19.9315 219.292 19.0869Z" fill="#0094DE"/>
<path d="M65.8956 35.4303H66.8974L68.0956 38.6125C68.1742 38.8286 68.2331 39.0054 68.2921 39.1625C68.351 39.3197 68.3903 39.4768 68.4296 39.6143C68.5278 39.2804 68.626 38.9661 68.7439 38.6322C68.7635 38.5929 68.7635 38.5732 68.7832 38.5536L70.0404 35.1945L71.3761 38.6125C71.435 38.7697 71.494 38.9465 71.5529 39.1036C71.6118 39.2608 71.6708 39.4376 71.7101 39.6143C71.7297 39.4768 71.769 39.3393 71.8279 39.1822C71.8868 39.025 71.9458 38.8483 72.0243 38.6322L73.203 35.4303H74.2244L71.769 41.9716L70.335 38.3768C70.2761 38.2197 70.2171 38.0625 70.1582 37.9054C70.0993 37.7482 70.06 37.6107 70.0207 37.4928C69.9814 37.6696 69.9225 37.8268 69.8832 37.9643C69.8439 38.1214 69.785 38.2589 69.7261 38.3964L68.3117 41.9716L65.8956 35.4303Z" fill="#263077"/>
<path d="M81.0604 41.7162V35.4303H84.5766V36.2946H82.0818V37.8661H84.5766V38.7697H82.0818V40.8126H84.5766V41.7359H81.0604V41.7162Z" fill="#263077"/>
<path d="M105.792 36.9625C105.497 36.7071 105.202 36.5303 104.868 36.4124C104.554 36.2946 104.2 36.2356 103.847 36.2356C103.159 36.2356 102.59 36.4517 102.177 36.9035C101.745 37.3357 101.529 37.925 101.529 38.6125C101.529 39.3 101.745 39.8501 102.158 40.3019C102.57 40.734 103.1 40.9698 103.749 40.9698C104.122 40.9698 104.475 40.9108 104.809 40.7733C105.143 40.6358 105.477 40.4394 105.772 40.184V41.343C105.497 41.5394 105.202 41.6966 104.868 41.7948C104.534 41.893 104.2 41.9323 103.808 41.9323C103.316 41.9323 102.884 41.8537 102.472 41.6966C102.059 41.5394 101.706 41.3037 101.391 41.009C101.077 40.7144 100.841 40.3608 100.684 39.9483C100.527 39.5358 100.429 39.1036 100.429 38.6518C100.429 38.2 100.507 37.7482 100.684 37.3553C100.841 36.9428 101.097 36.5892 101.391 36.2946C101.706 35.9803 102.059 35.7446 102.472 35.5874C102.884 35.4303 103.317 35.3517 103.788 35.3517C104.161 35.3517 104.515 35.4106 104.849 35.5088C105.183 35.607 105.517 35.7838 105.831 35.9999L105.792 36.9625Z" fill="#263077"/>
<path d="M117.381 41.7162L116.674 40.0858H114.179L113.453 41.7162H112.372L115.417 35.1749L118.462 41.7162H117.381ZM114.553 39.2411H116.301L115.653 37.8071C115.613 37.7089 115.574 37.6107 115.535 37.4928C115.496 37.375 115.456 37.2375 115.417 37.1C115.378 37.2375 115.338 37.375 115.299 37.4928C115.26 37.6107 115.22 37.7286 115.181 37.8268L114.553 39.2411Z" fill="#263077"/>
<path d="M125.199 41.7162V35.1749L129.207 39.025C129.325 39.1429 129.423 39.2411 129.541 39.3786C129.658 39.4965 129.776 39.634 129.894 39.7911V35.4303H130.837V41.9716L126.751 38.0625C126.633 37.9643 126.535 37.8464 126.437 37.7286C126.339 37.6107 126.241 37.4928 126.142 37.3553V41.7162H125.199Z" fill="#263077"/>
<path d="M152.307 36.9625C152.013 36.7071 151.718 36.5303 151.384 36.4124C151.07 36.2946 150.716 36.2356 150.363 36.2356C149.675 36.2356 149.106 36.4517 148.693 36.9035C148.261 37.3357 148.045 37.925 148.045 38.6125C148.045 39.3 148.261 39.8501 148.673 40.3019C149.086 40.734 149.616 40.9698 150.265 40.9698C150.638 40.9698 150.991 40.9108 151.325 40.7733C151.659 40.6358 151.993 40.4394 152.288 40.184V41.343C152.013 41.5394 151.718 41.6966 151.384 41.7948C151.07 41.893 150.716 41.9323 150.324 41.9323C149.832 41.9323 149.4 41.8537 148.988 41.6966C148.575 41.5394 148.222 41.3037 147.907 41.009C147.593 40.7144 147.357 40.3608 147.2 39.9483C147.043 39.5358 146.945 39.1036 146.945 38.6518C146.945 38.2 147.023 37.7482 147.2 37.3553C147.357 36.9428 147.613 36.5892 147.907 36.2946C148.222 35.9803 148.575 35.7446 148.988 35.5874C149.4 35.4303 149.832 35.3517 150.304 35.3517C150.677 35.3517 151.031 35.4106 151.365 35.5088C151.699 35.607 152.032 35.7838 152.347 35.9999L152.307 36.9625Z" fill="#263077"/>
<path d="M159.713 35.4303H160.715V39.2608C160.715 39.8304 160.852 40.2626 161.108 40.5376C161.363 40.8322 161.756 40.9697 162.286 40.9697C162.797 40.9697 163.19 40.8322 163.465 40.5376C163.72 40.2429 163.858 39.8304 163.858 39.2608V35.4303H164.879V39.3393C164.879 40.184 164.663 40.8322 164.231 41.2448C163.799 41.6769 163.151 41.8733 162.286 41.8733C161.422 41.8733 160.774 41.6573 160.342 41.2448C159.91 40.8322 159.694 40.184 159.694 39.3393V35.4303H159.713Z" fill="#263077"/>
<path d="M173.424 38.9072V41.7162H172.462V35.4303H173.896C174.308 35.4303 174.642 35.4499 174.878 35.5088C175.114 35.5678 175.31 35.6463 175.467 35.7839C175.664 35.941 175.821 36.1374 175.919 36.3732C176.017 36.6089 176.076 36.8839 176.076 37.1589C176.076 37.6696 175.958 38.0625 175.703 38.3375C175.467 38.6322 175.094 38.7893 174.623 38.8482L176.783 41.7162H175.624L173.523 38.9072H173.424ZM173.483 38.1018H173.66C174.21 38.1018 174.564 38.0429 174.74 37.9054C174.917 37.7875 175.015 37.5518 175.015 37.2375C175.015 36.8839 174.917 36.6482 174.721 36.5107C174.524 36.3732 174.171 36.2946 173.66 36.2946H173.483V38.1018Z" fill="#263077"/>
<path d="M183.56 41.7162V35.4303H187.077V36.2946H184.582V37.8661H187.077V38.7697H184.582V40.8126H187.077V41.7359H183.56V41.7162Z" fill="#263077"/>
<path d="M203.243 41.7162V35.4303H204.265V41.7162H203.243Z" fill="#263077"/>
<path d="M213.929 36.2946V41.7162H212.908V36.2946H211.238V35.4303H215.599V36.2946H213.929Z" fill="#263077"/>
<path d="M40.1564 0H9.50237C4.27014 0 0.0189514 4.2654 0.0189514 9.49763V40.1517C0.0189514 45.3839 4.27014 49.6493 9.51659 49.6493H24.8436H26.1801V38.9147C33.6019 38.2322 39.4455 31.9763 39.4455 24.3839V22.3934H36.7725V24.3839C36.7725 30.9526 31.4265 36.3128 24.8436 36.3128C18.2607 36.3128 12.9147 30.9668 12.9147 24.3839V22.3934H10.2417V24.3839C10.2417 31.9905 16.0853 38.2464 23.5071 38.9147V46.9763H9.50237C5.74881 46.9763 2.69194 43.9194 2.69194 40.1517V9.49763C2.69194 5.74408 5.74881 2.6872 9.50237 2.6872H40.1564C43.91 2.6872 46.9668 5.74408 46.9668 9.49763V40.1517C46.9668 43.9052 43.91 46.9763 40.1564 46.9763H33.6588V54.7109L27.1185 49.8768L27.1896 53.2464L36.3318 60V49.6351H40.1564C45.3886 49.6351 49.6541 45.3697 49.6541 40.1374V9.49763C49.6541 4.2654 45.3886 0 40.1564 0Z" fill="#263077"/>
<path d="M39.4313 19.3507C39.4313 15.8815 36.9858 12.9811 33.7298 12.2559C33.2891 11.346 32.3649 10.7204 31.2986 10.7204C29.8057 10.7204 28.5971 11.9289 28.5971 13.4218C28.5971 14.9147 29.8057 16.1232 31.2986 16.1232C32.2227 16.1232 33.0332 15.6683 33.5166 14.9574C35.3933 15.5261 36.7583 17.2749 36.7583 19.3365V19.9479H39.4313V19.3507Z" fill="#0094DE"/>
<path d="M21.0758 13.4218C21.0758 11.9289 19.8673 10.7204 18.3744 10.7204C17.2938 10.7204 16.3697 11.346 15.9431 12.2559C12.6872 12.9668 10.2417 15.8815 10.2417 19.3507V19.9621H12.9147V19.3507C12.9147 17.2891 14.2796 15.5403 16.1564 14.9716C16.6398 15.6683 17.4502 16.1375 18.3744 16.1375C19.8673 16.1232 21.0758 14.9147 21.0758 13.4218Z" fill="#0094DE"/>
<path d="M18.346 19.6493C17.0379 23.4028 18.4313 26.3886 20.5071 28.3792C20.564 27.455 20.6919 26.5877 20.9336 25.8199C21.019 25.564 21.1043 25.3081 21.218 25.0664L20.9336 24.7678C20.5355 24.3412 20.1943 23.8863 19.9242 23.3744C19.7962 23.1185 19.6825 22.8483 19.6114 22.564C19.5403 22.2938 19.4834 21.9953 19.5118 21.7251C19.5687 21.9953 19.6825 22.2512 19.8104 22.4929C19.8673 22.6066 19.9526 22.7204 20.0095 22.8483C20.0806 22.9621 20.1659 23.0758 20.237 23.1754C20.564 23.6019 20.9479 23.9858 21.346 24.3412L21.5024 24.4834C22.0711 23.4882 22.8957 22.7204 23.9905 22.1517C19.2133 20.9574 18.346 19.6493 18.346 19.6493Z" fill="#0094DE"/>
<path d="M32.3081 19.6493C32.3081 19.6493 31.3981 21.0284 26.2654 22.237C20.8768 23.5024 21.1185 27.5261 21.4171 33.6398C21.4171 33.6398 21.5024 31.4787 24.6161 31.237C27.7583 30.981 34.7678 26.6303 32.3081 19.6493ZM31.0569 22.5498C30.9858 22.8341 30.872 23.0901 30.7441 23.3602C30.4739 23.872 30.1327 24.3412 29.7346 24.7536L29.436 25.0664L29.109 25.3507C28.8957 25.5498 28.6682 25.7204 28.4408 25.891C27.9858 26.2322 27.5024 26.5308 27.0047 26.8152C26.5071 27.0995 26.0521 27.3412 25.5829 27.6398C25.3555 27.782 25.128 27.9384 24.9147 28.0948C24.7014 28.2654 24.4882 28.4218 24.2749 28.5924C23.4502 29.2891 22.6825 30.0711 22.1422 31.0521C22.2417 30.4976 22.4976 29.9716 22.782 29.4882C23.0806 29.0047 23.4502 28.5498 23.8483 28.1517C24.2464 27.7251 24.7014 27.3839 25.1564 27.0427C25.3981 26.8863 25.6256 26.7156 25.8815 26.5735L26.6066 26.1469C27.09 25.891 27.545 25.6066 28 25.3081C28.2275 25.1517 28.455 25.0095 28.654 24.8389L28.981 24.5972L29.2938 24.3412C29.6919 23.9858 30.09 23.6019 30.4028 23.1754C30.4882 23.0616 30.5592 22.9621 30.6303 22.8483C30.7014 22.7346 30.7725 22.6209 30.8294 22.4929C30.9573 22.2512 31.0711 21.9953 31.128 21.7251C31.1848 21.9953 31.1422 22.2796 31.0569 22.5498Z" fill="#0094DE"/>
</svg>
