<svg width="21" height="20" viewBox="0 0 21 20" fill="none" xmlns="http://www.w3.org/2000/svg">
<rect x="11.3159" y="12.67" width="2.07324" height="10.3662" transform="rotate(-45 11.3159 12.67)" fill="#263077"/>
<path d="M7.47174 14.9435C11.5778 14.9435 14.9435 11.5778 14.9435 7.47174C14.9435 3.36565 11.6115 0 7.47174 0C3.36565 0 0 3.36565 0 7.47174C0 11.5778 3.36565 14.9435 7.47174 14.9435ZM7.47174 1.98573C10.5008 1.98573 12.9578 4.44266 12.9578 7.47174C12.9578 10.5008 10.5008 12.9578 7.47174 12.9578C4.44266 12.9578 1.98573 10.5008 1.98573 7.47174C1.98573 4.44266 4.44266 1.98573 7.47174 1.98573Z" fill="#0094DE"/>
</svg>
