<svg width="45" height="45" viewBox="0 0 45 45" fill="none" xmlns="http://www.w3.org/2000/svg">
<path d="M34.4531 24.6094C37.125 27.2813 37.125 31.7813 34.4531 34.4531C33.75 35.1563 33.0469 35.5781 32.2031 36C29.6719 36.9844 26.7187 36.5625 24.6094 34.4531C21.9375 31.7813 21.9375 27.2813 24.6094 24.6094C27.2812 21.9375 31.7812 21.9375 34.4531 24.6094Z" stroke="#0094DE" stroke-width="2" stroke-miterlimit="10" stroke-linecap="round" stroke-linejoin="round"/>
<path d="M35.8594 32.3438L41.3437 37.4063C42.4687 38.5313 42.4687 40.2188 41.3437 41.3438C40.2187 42.4688 38.5313 42.4688 37.4063 41.3438L32.4844 36.4219" stroke="#0094DE" stroke-width="2" stroke-miterlimit="10" stroke-linecap="round" stroke-linejoin="round"/>
<path d="M28.2656 22.6406C29.1094 21.375 29.5312 19.8281 29.5312 18.2813C29.5312 16.7344 30.7969 15.4688 32.3437 15.4688V12.2344C32.3437 8.29689 29.3906 4.64064 25.4531 4.21877C22.6406 3.93752 20.1094 5.06252 18.5625 7.17189C17.4375 6.89064 16.3125 7.03127 14.9063 8.01564C13.5 9.00002 12.6563 10.8281 12.6563 12.6563V14.0625V16.1719V18C12.6563 21.0938 14.3437 24.0469 16.875 25.5938C16.875 28.8281 14.625 31.5 11.5312 32.3438C7.875 33.3281 5.20313 36.2813 4.35938 39.9375C4.35938 40.3594 4.64063 40.7813 5.20313 40.7813H36.8438" stroke="#263077" stroke-width="2" stroke-miterlimit="10" stroke-linecap="round" stroke-linejoin="round"/>
</svg>
