<svg width="32" height="40" viewBox="0 0 32 40" fill="none" xmlns="http://www.w3.org/2000/svg">
<path d="M21 24.2328V21.6617C22.5204 20.7839 23.7829 19.5213 24.6606 18.0008C25.5383 16.4804 26.0003 14.7556 26 13V10C26.0033 7.80658 25.2821 5.67346 23.9484 3.93204V3.93204C23.9031 3.87266 23.857 3.81381 23.8102 3.75548C23.3455 3.17556 22.8181 2.64891 22.2375 2.18516L22.2125 2.16485C22.1651 2.12735 22.1174 2.09037 22.0695 2.05391L22.0281 2.02188L21.8922 1.9211L21.8406 1.8836L21.7094 1.79063L21.6492 1.74923L21.5211 1.66329L21.4547 1.61954L21.3281 1.54141L21.257 1.49688L21.132 1.41876L21.0539 1.37423L20.9289 1.30157L20.8508 1.25782L20.7258 1.18907L20.6477 1.1461L20.5227 1.08126L20.4391 1.03985L20.3133 0.978132L20.2266 0.937506L20.0984 0.878131L20.0156 0.842194C19.8646 0.775527 19.7115 0.712767 19.5562 0.653913L19.4508 0.614069L19.3391 0.574225L19.2266 0.534381L19.1156 0.497663L18.9992 0.460163L18.8906 0.424225L18.7703 0.390631L18.6562 0.3586L18.5352 0.325787L18.4242 0.297662L18.3016 0.267975L18.1906 0.242194L18.0656 0.21485L17.9547 0.192194L17.8273 0.167975L17.7187 0.147662L17.5891 0.126569L17.4781 0.109381L17.3453 0.0906311L17.2367 0.0781311L17.1016 0.0609436L16.993 0.0492249L16.8523 0.0367249L16.7469 0.0273499L16.5984 0.0179749L16.4992 0.0125061L16.3336 0.0062561H16.2508C16.1674 0.0062561 16.0839 0.0062561 16 0.0062561C15.9161 0.0062561 15.8325 0.0062561 15.7492 0.0062561H15.6664L15.5008 0.0125061L15.4016 0.0187561L15.2531 0.0281311L15.1477 0.0367249L15.007 0.0492249L14.8984 0.0609436L14.7633 0.0765686L14.6531 0.0914124L14.5211 0.110162L14.4102 0.12735L14.2812 0.147662L14.1695 0.167975L14.0422 0.192194L13.9312 0.21485L13.8062 0.242194L13.6953 0.267975L13.5727 0.297662L13.4617 0.325787L13.3437 0.3586L13.2297 0.390631L13.1094 0.424225L12.9992 0.457819L12.8828 0.495319L12.7719 0.532038L12.6594 0.571881L12.5477 0.611725L12.443 0.651569C12.2867 0.710944 12.1328 0.773965 11.9812 0.840631L11.9031 0.875788L11.7742 0.935163L11.6906 0.974225L11.5641 1.03594L11.4805 1.07735L11.3547 1.14219L11.2766 1.18516L11.1516 1.25391L11.0734 1.29766L10.9484 1.37032L10.8703 1.41485L10.7453 1.49298L10.6742 1.53751L10.5477 1.61563L10.4812 1.65938L10.3531 1.74532L10.293 1.78673L10.1617 1.87969L10.1094 1.91798L9.97344 2.01876L9.93203 2.05079C9.88411 2.08725 9.83646 2.12423 9.78906 2.16173L9.76406 2.18204C9.18358 2.64505 8.65615 3.17091 8.19141 3.75001V3.75001C8.14453 3.80834 8.09844 3.86719 8.05312 3.92657C6.71778 5.66928 5.99596 7.80452 6 10V13C5.99974 14.7556 6.46168 16.4804 7.33938 18.0008C8.21707 19.5213 9.47959 20.7839 11 21.6617V24.2328C7.90789 24.8161 5.11659 26.461 3.10819 28.8833C1.0998 31.3057 0.000443352 34.3534 0 37.5C0 38.1631 0.263392 38.7989 0.732233 39.2678C1.20107 39.7366 1.83696 40 2.5 40H29.5C30.163 40 30.7989 39.7366 31.2678 39.2678C31.7366 38.7989 32 38.1631 32 37.5C31.9995 34.3534 30.9002 31.3057 28.8918 28.8833C26.8834 26.461 24.0921 24.8161 21 24.2328V24.2328ZM24 38H20V34C20 33.4696 20.2107 32.9609 20.5858 32.5858C20.9609 32.2107 21.4696 32 22 32C22.5304 32 23.0391 32.2107 23.4142 32.5858C23.7893 32.9609 24 33.4696 24 34V38ZM14.95 2.06876L14.9937 2.06329L15.1461 2.0461L15.3023 2.03126L15.4195 2.02188C15.4956 2.01667 15.5721 2.01225 15.6492 2.0086H15.7273C15.818 2.0086 15.9094 2.00313 16.0008 2.00313C16.0922 2.00313 16.1836 2.00313 16.2742 2.0086H16.3523C16.4289 2.01173 16.5055 2.01615 16.582 2.02188L16.7031 2.03126L16.8594 2.0461L17.0117 2.06329L17.0555 2.06876C18.456 2.2577 19.7818 2.81325 20.8986 3.67918C22.0155 4.54511 22.8837 5.6907 23.4156 7.00001H8.58437C9.1167 5.68997 9.98583 4.5439 11.1037 3.67792C12.2216 2.81193 13.5485 2.2568 14.95 2.06876V2.06876ZM7.99687 13V10C7.99691 9.6657 8.01779 9.33172 8.05937 9.00001H23.9375C23.9791 9.33172 24 9.6657 24 10V13C24 15.1217 23.1571 17.1566 21.6569 18.6569C20.1566 20.1572 18.1217 21 16 21C13.8783 21 11.8434 20.1572 10.3431 18.6569C8.84285 17.1566 8 15.1217 8 13H7.99687ZM16 23C17.0175 23.001 18.0291 22.8466 19 22.5422V24.868L16 26.6649L13 24.868V22.5422C13.9709 22.8466 14.9825 23.001 16 23V23ZM11 33C11 33.1978 10.9413 33.3911 10.8315 33.5556C10.7216 33.72 10.5654 33.8482 10.3827 33.9239C10.2 33.9996 9.99889 34.0194 9.80491 33.9808C9.61093 33.9422 9.43274 33.847 9.29289 33.7071C9.15304 33.5673 9.0578 33.3891 9.01921 33.1951C8.98063 33.0011 9.00043 32.8001 9.07612 32.6173C9.15181 32.4346 9.27998 32.2784 9.44443 32.1686C9.60888 32.0587 9.80222 32 10 32C10.2652 32.0002 10.5194 32.1056 10.7069 32.2931C10.8944 32.4806 10.9998 32.7349 11 33ZM2 37.5C2.00232 35.2445 2.66692 33.0393 3.91132 31.1581C5.15573 29.2769 6.92515 27.8025 9 26.918V30.1711C8.33278 30.407 7.77044 30.8712 7.41237 31.4816C7.05429 32.092 6.92353 32.8094 7.0432 33.5068C7.16287 34.2043 7.52527 34.8371 8.06634 35.2932C8.60741 35.7494 9.29231 35.9995 10 35.9995C10.7077 35.9995 11.3926 35.7494 11.9337 35.2932C12.4747 34.8371 12.8371 34.2043 12.9568 33.5068C13.0765 32.8094 12.9457 32.092 12.5876 31.4816C12.2296 30.8712 11.6672 30.407 11 30.1711V26.2742C11.1133 26.2492 11.2266 26.2258 11.3406 26.2039L16 29L20.6594 26.2047C20.7734 26.2266 20.8875 26.2492 21 26.275V30.1274C20.1419 30.3502 19.3819 30.8513 18.839 31.5522C18.2962 32.2531 18.0011 33.1142 18 34.0008V38.0008H2.5C2.36732 38.0006 2.24014 37.9477 2.1464 37.8539C2.05265 37.76 2 37.6327 2 37.5V37.5ZM29.5 38H26V34C25.9989 33.1135 25.7038 32.2523 25.1609 31.5514C24.6181 30.8505 23.8581 30.3494 23 30.1266V26.918C25.0748 27.8025 26.8443 29.2769 28.0887 31.1581C29.3331 33.0393 29.9977 35.2445 30 37.5C29.9998 37.6326 29.947 37.7596 29.8533 37.8533C29.7596 37.9471 29.6325 37.9998 29.5 38V38Z" fill="url(#paint0_linear_44_50)"/>
<defs>
<linearGradient id="paint0_linear_44_50" x1="16" y1="0.0062561" x2="16" y2="40" gradientUnits="userSpaceOnUse">
<stop stop-color="#0094DE"/>
<stop offset="1" stop-color="#263077"/>
</linearGradient>
</defs>
</svg>
